<svg xmlns="http://www.w3.org/2000/svg" viewBox="0 0 1200 675" role="img" aria-label="Checkers Game cover">
  <defs><linearGradient id="g" x1="0" y1="0" x2="1" y2="1"><stop offset="0" stop-color="#2d2039"/><stop offset="1" stop-color="#5d2b47"/></linearGradient></defs>
  <rect width="1200" height="675" fill="url(#g)"/>
  <g transform="translate(180,170)">
    <rect width="360" height="360" fill="#f6d8a8"/>
    <g fill="#3f1f25">
      <rect x="45" y="0" width="45" height="45"/><rect x="135" y="0" width="45" height="45"/><rect x="225" y="0" width="45" height="45"/><rect x="315" y="0" width="45" height="45"/>
      <rect x="0" y="45" width="45" height="45"/><rect x="90" y="45" width="45" height="45"/><rect x="180" y="45" width="45" height="45"/><rect x="270" y="45" width="45" height="45"/>
      <rect x="45" y="90" width="45" height="45"/><rect x="135" y="90" width="45" height="45"/><rect x="225" y="90" width="45" height="45"/><rect x="315" y="90" width="45" height="45"/>
      <rect x="0" y="135" width="45" height="45"/><rect x="90" y="135" width="45" height="45"/><rect x="180" y="135" width="45" height="45"/><rect x="270" y="135" width="45" height="45"/>
      <rect x="45" y="180" width="45" height="45"/><rect x="135" y="180" width="45" height="45"/><rect x="225" y="180" width="45" height="45"/><rect x="315" y="180" width="45" height="45"/>
      <rect x="0" y="225" width="45" height="45"/><rect x="90" y="225" width="45" height="45"/><rect x="180" y="225" width="45" height="45"/><rect x="270" y="225" width="45" height="45"/>
      <rect x="45" y="270" width="45" height="45"/><rect x="135" y="270" width="45" height="45"/><rect x="225" y="270" width="45" height="45"/><rect x="315" y="270" width="45" height="45"/>
      <rect x="0" y="315" width="45" height="45"/><rect x="90" y="315" width="45" height="45"/><rect x="180" y="315" width="45" height="45"/><rect x="270" y="315" width="45" height="45"/>
    </g>
  </g>
  <circle cx="720" cy="300" r="44" fill="#f46a6a"/><circle cx="820" cy="380" r="44" fill="#f46a6a"/><circle cx="760" cy="470" r="44" fill="#ffe3a9"/>
  <text x="120" y="120" fill="#ffeef8" font-size="58" font-family="Arial, sans-serif" font-weight="700">Checkers Game</text>
</svg>
